HIERARCHY
ROOT Pelvis
{
	OFFSET 0.000000 0.000000 0.000000
	CHANNELS 6 Xposition Yposition Zposition Xrotation Yrotation Zrotation
	JOINT LeftUpLeg_virtual
	{
		OFFSET 0.000000 0.000000 0.000000
		CHANNELS 3 Xrotation Yrotation Zrotation
		JOINT LeftUpLeg
		{
			OFFSET 8.479700 -4.795502 -0.379100
			CHANNELS 3 Xrotation Yrotation Zrotation
			JOINT LeftLeg
			{
				OFFSET 0.024144 -32.555107 0.112900
				CHANNELS 3 Xrotation Yrotation Zrotation
				JOINT LeftFoot
				{
					OFFSET -0.024144 -32.638630 -3.012600
					CHANNELS 3 Xrotation Yrotation Zrotation
					JOINT LeftToeBase
					{
						OFFSET 0.970200 -13.225400 11.864200
						CHANNELS 3 Xrotation Yrotation Zrotation
						End Site
						{
							OFFSET 0 0 0
						}
					}
				}
			}
		}
	}
	JOINT RightUpLeg_virtual
	{
		OFFSET 0.000000 0.000000 0.000000
		CHANNELS 3 Xrotation Yrotation Zrotation
		JOINT RightUpLeg
		{
			OFFSET -8.479700 -4.795502 -0.379100
			CHANNELS 3 Xrotation Yrotation Zrotation
			JOINT RightLeg
			{
				OFFSET -0.023144 -32.555092 0.112900
				CHANNELS 3 Xrotation Yrotation Zrotation
				JOINT RightFoot
				{
					OFFSET 0.023144 -32.638641 -3.012700
					CHANNELS 3 Xrotation Yrotation Zrotation
					JOINT RightToeBase
					{
						OFFSET -0.970200 -13.225400 11.864200
						CHANNELS 3 Xrotation Yrotation Zrotation
						End Site
						{
							OFFSET 0 0 0
						}
					}
				}
			}
		}
	}
	JOINT Hips_virtual
	{
		OFFSET 0.000000 0.000000 0.000000
		CHANNELS 3 Xrotation Yrotation Zrotation
		JOINT Hips
		{
			OFFSET -0.000000 -0.000000 -0.000000
			CHANNELS 3 Xrotation Yrotation Zrotation
			JOINT Spine
			{
				OFFSET 0.000000 7.722000 1.166200
				CHANNELS 3 Xrotation Yrotation Zrotation
				JOINT Spine1
				{
					OFFSET 0.000000 12.024101 0.248800
					CHANNELS 3 Xrotation Yrotation Zrotation
					JOINT Spine2
					{
						OFFSET 0.000000 11.502998 -0.491200
						CHANNELS 3 Xrotation Yrotation Zrotation
						JOINT Neck_virtual
						{
							OFFSET 0.000000 0.000000 0.000000
							CHANNELS 3 Xrotation Yrotation Zrotation
							JOINT Neck
							{
								OFFSET 0.000000 18.430702 -3.123100
								CHANNELS 3 Xrotation Yrotation Zrotation
								JOINT Head
								{
									OFFSET 0.000000 9.051102 1.034000
									CHANNELS 3 Xrotation Yrotation Zrotation
									End Site
									{
										OFFSET 0 0 0
									}
								}
							}
						}
						JOINT LeftShoulder_virtual
						{
							OFFSET 0.000000 0.000000 0.000000
							CHANNELS 3 Xrotation Yrotation Zrotation
							JOINT LeftShoulder
							{
								OFFSET 6.197800 13.665199 -4.064700
								CHANNELS 3 Xrotation Yrotation Zrotation
								JOINT LeftArm
								{
									OFFSET 7.778100 -0.187103 -1.709300
									CHANNELS 3 Xrotation Yrotation Zrotation
									JOINT LeftForeArm
									{
										OFFSET 22.049376 0.000000 0.000000
										CHANNELS 3 Xrotation Yrotation Zrotation
										JOINT LeftHand
										{
											OFFSET 23.009392 0.000000 0.000000
											CHANNELS 3 Xrotation Yrotation Zrotation
											End Site
											{
												OFFSET 0 0 0
											}
										}
									}
								}
							}
						}
						JOINT RightShoulder_virtual
						{
							OFFSET 0.000000 0.000000 0.000000
							CHANNELS 3 Xrotation Yrotation Zrotation
							JOINT RightShoulder
							{
								OFFSET -6.197800 13.665199 -4.064700
								CHANNELS 3 Xrotation Yrotation Zrotation
								JOINT RightArm
								{
									OFFSET -7.778100 -0.187103 -1.709300
									CHANNELS 3 Xrotation Yrotation Zrotation
									JOINT RightForeArm
									{
										OFFSET -22.049376 0.000000 0.000000
										CHANNELS 3 Xrotation Yrotation Zrotation
										JOINT RightHand
										{
											OFFSET -23.009392 0.000000 0.000000
											CHANNELS 3 Xrotation Yrotation Zrotation
											End Site
											{
												OFFSET 0 0 0
											}
										}
									}
								}
							}
						}
					}
				}
			}
		}
	}
}
MOTION
Frames: 7
Frame Time: 0.03333333
-0.265559 74.620651 -0.166954 0.000000 0.000000 0.000000 -10.681583 -53.624355 -2.410594 -24.687652 14.792885 20.099251 40.185736 -3.554023 -0.796280 -6.065640 1.393151 -14.312476 0.000000 0.000000 0.000000 -10.681583 -53.624355 -2.410594 -25.248950 -0.591090 -20.600402 50.924183 3.282467 -8.036466 -17.619870 -3.351189 16.202626 0.000000 0.000000 0.000000 -10.681583 -53.624355 -2.410594 -0.000001 0.000001 0.000000 6.703052 0.909713 -2.659360 13.440116 1.505924 -5.282126 0.000000 0.000000 0.000000 13.440107 1.505927 -5.282124 3.996213 2.607474 -0.466376 0.000000 0.000000 0.000000 13.440107 1.505927 -5.282124 -0.177264 -6.033954 5.204530 -21.071653 17.785778 -57.231477 -179.999991 -53.681243 -179.999991 0.000000 0.000000 0.000000 13.440107 1.505927 -5.282124 10.920052 26.931043 3.130401 -46.478184 38.185853 48.496098 -179.999909 69.435526 179.999909 0.000000 0.000000 0.000000 
-0.750260 74.645607 -0.740227 0.000000 0.000000 0.000000 -10.904178 -53.127069 -2.070461 -23.795833 14.546875 19.520915 38.701395 -4.144058 -0.290834 -5.155791 2.195153 -14.920244 0.000000 0.000000 0.000000 -10.904178 -53.127069 -2.070461 -25.349513 -0.753366 -20.469329 52.000194 2.818439 -7.848623 -18.864499 -3.635780 14.228147 0.000000 0.000000 0.000000 -10.904178 -53.127069 -2.070461 0.000000 -0.000001 0.000000 6.884438 0.461814 -3.227401 13.428628 1.385318 -5.296947 0.000000 0.000000 0.000000 13.420776 1.411916 -5.309465 4.071266 2.649590 -0.515532 0.000000 0.000000 0.000000 13.420776 1.411916 -5.309465 -0.474786 -6.155471 3.198673 -17.792054 18.997978 -56.885992 -180.000005 -52.339330 179.999991 0.000000 0.000000 0.000000 13.420776 1.411916 -5.309465 10.865813 26.827602 2.963925 -46.847875 38.723594 50.356574 -179.999950 72.120528 179.999950 0.000000 0.000000 0.000000 
-1.186113 74.700470 -1.529230 0.000000 0.000000 0.000000 -10.730459 -52.071293 -1.524498 -23.137664 13.658897 18.752967 36.729455 -3.774040 0.517139 -3.629376 2.231542 -15.967596 0.000000 0.000000 0.000000 -10.730459 -52.071293 -1.524498 -25.405367 -0.946516 -20.189906 52.848688 2.489557 -7.481010 -19.689192 -4.441153 12.694068 0.000000 0.000000 0.000000 -10.730459 -52.071293 -1.524498 0.000000 0.000000 -0.000001 7.705305 0.246440 -3.812645 13.471027 1.247508 -5.375651 0.000000 0.000000 0.000000 13.463745 1.291635 -5.383112 3.970769 2.575121 -0.513153 0.000000 0.000000 0.000000 13.463745 1.291635 -5.383112 -0.604227 -6.510271 2.042941 -15.274321 19.486415 -56.458067 179.999991 -51.120370 -180.000005 0.000000 0.000000 0.000000 13.463745 1.291635 -5.383112 10.874063 26.686432 2.331213 -47.669874 38.728962 52.535674 -179.999704 74.887328 179.999704 0.000000 0.000000 0.000000 
-1.569716 74.745132 -2.465492 0.000000 0.000000 0.000000 -10.379592 -50.551439 -0.943503 -23.513807 12.016858 18.293502 35.267354 -3.293821 1.502616 0.185666 1.447510 -17.997045 0.000000 0.000000 0.000000 -10.379592 -50.551439 -0.943503 -25.460244 -1.244478 -19.780744 53.656556 2.213469 -6.964419 -20.465733 -5.624120 11.053702 0.000000 0.000000 0.000000 -10.379592 -50.551439 -0.943503 0.000000 0.000000 0.000000 9.084729 0.214154 -4.319304 13.571643 1.134050 -5.519533 0.000000 0.000000 0.000000 13.568756 1.181515 -5.516786 3.692163 2.416203 -0.492102 0.000000 0.000000 0.000000 13.568756 1.181515 -5.516786 -0.610940 -7.055525 1.499515 -13.733017 19.141702 -55.614436 179.999991 -50.165373 -179.999991 0.000000 0.000000 0.000000 13.568756 1.181515 -5.516786 10.915529 26.508832 1.381149 -49.008817 38.270151 54.704997 179.999650 77.610470 -179.999650 0.000000 0.000000 0.000000 
-1.892295 74.782608 -3.590788 0.000000 0.000000 0.000000 -9.891418 -48.426956 -0.345985 -24.652342 9.839271 17.788739 33.989265 -2.654438 2.671898 5.230761 -0.303698 -19.613737 0.000000 0.000000 0.000000 -9.891418 -48.426956 -0.345985 -25.671403 -1.635592 -19.294057 54.604712 2.056178 -6.252919 -20.932571 -7.244294 9.290808 0.000000 0.000000 0.000000 -9.891418 -48.426956 -0.345985 0.000001 0.000002 -0.000000 11.211299 0.405018 -4.695598 13.743581 1.075060 -5.733795 0.000000 0.000000 0.000000 13.747224 1.106304 -5.720680 3.149084 2.157387 -0.468783 0.000000 0.000000 0.000000 13.747224 1.106304 -5.720680 -0.478508 -7.847206 1.562680 -13.760025 17.595783 -53.833758 -179.999991 -49.527040 -179.999991 0.000000 0.000000 0.000000 13.747224 1.106304 -5.720680 10.980233 26.274281 0.074707 -50.899929 37.184001 56.537724 -179.999390 80.068682 179.999363 0.000000 0.000000 0.000000 
-2.155721 74.828651 -4.925766 0.000000 0.000000 0.000000 -9.307165 -45.636831 0.267103 -26.624060 7.193671 17.315757 32.351642 -2.773225 3.821196 13.137133 -3.002773 -21.057898 0.000000 0.000000 0.000000 -9.307165 -45.636831 0.267103 -26.156638 -2.107825 -18.839632 55.733794 2.058739 -5.337003 -20.784438 -9.309350 7.649733 0.000000 0.000000 0.000000 -9.307165 -45.636831 0.267103 0.000000 0.000000 0.000000 14.175908 0.814721 -4.890878 13.982871 1.088454 -5.978410 0.000000 0.000000 0.000000 13.992933 1.088509 -5.960027 2.272223 1.800418 -0.470748 0.000000 0.000000 0.000000 13.992933 1.088509 -5.960027 -0.208938 -8.911111 2.099254 -15.686689 14.804324 -50.864217 -179.999991 -49.224306 -179.999991 0.000000 0.000000 0.000000 13.992933 1.088509 -5.960027 11.035421 25.962043 -1.553427 -53.207922 35.389105 57.573877 179.999663 81.983792 -179.999677 0.000000 0.000000 0.000000 
-2.371660 74.900230 -6.453094 0.000000 0.000000 0.000000 -8.635954 -42.229711 0.901787 -28.590108 4.562011 16.853560 28.503756 -4.221161 4.728501 24.548181 -6.859370 -22.774858 0.000000 0.000000 0.000000 -8.635954 -42.229711 0.901787 -26.918955 -2.703388 -18.481034 56.878991 2.028788 -4.261143 -20.023657 -11.698005 6.285932 0.000000 0.000000 0.000000 -8.635954 -42.229711 0.901787 -0.000000 -0.000001 -0.000001 17.925102 1.396237 -4.855218 14.257635 1.175860 -6.173257 0.000000 0.000000 0.000000 14.271724 1.144400 -6.159646 1.030282 1.366866 -0.531299 0.000000 0.000000 0.000000 14.271724 1.144400 -6.159646 0.113020 -10.231137 2.620951 -19.533093 10.946770 -46.589397 179.999991 -49.272264 -179.999991 0.000000 0.000000 0.000000 14.271724 1.144400 -6.159646 11.028368 25.558196 -3.395088 -55.659587 32.942795 57.345981 -179.999909 83.107782 179.999909 0.000000 0.000000 0.000000 
